<svg width="33" height="33" viewBox="0 0 33 33" fill="none" xmlns="http://www.w3.org/2000/svg">
<path d="M8.88461 0C4.00385 0 0 4.00385 0 8.88461V24.1154C0 28.9962 4.00385 33 8.88461 33H24.1154C28.9962 33 33 28.9962 33 24.1154V8.88461C33 4.00385 28.9962 0 24.1154 0H8.88461ZM8.88461 2.53846H24.1154C27.6115 2.53846 30.4615 5.38846 30.4615 8.88461V24.1154C30.4615 27.6115 27.6115 30.4615 24.1154 30.4615H8.88461C5.38846 30.4615 2.53846 27.6115 2.53846 24.1154V8.88461C2.53846 8.66611 2.5564 8.46292 2.57812 8.25C2.90404 5.05615 5.60697 2.53846 8.88461 2.53846ZM26.8125 5.59255C25.6999 5.66989 23.33 5.98125 22.0925 7.21875C20.1887 9.24952 20.7995 11.5579 21.1803 11.9387C21.5611 12.1925 23.8695 12.9382 25.9002 10.9075C27.4233 9.25745 27.4075 5.59255 27.4075 5.59255C27.4075 5.59255 27.1834 5.56677 26.8125 5.59255ZM19.2764 6.46514C17.7534 6.59207 15.4687 7.98822 14.8341 10.2728C14.0726 12.9382 15.4767 14.7389 15.9844 14.9928C16.3651 15.1197 17.912 15.088 18.8005 12.9303C19.8159 9.88413 19.2764 6.46514 19.2764 6.46514ZM12.8113 10.6695C11.2882 11.5579 10.1459 12.9462 9.63822 15.2308C9.13053 18.2769 11.1534 19.6651 11.6611 19.7921C12.1687 20.0459 13.6998 18.8957 14.0805 16.738C14.4613 14.5803 13.8267 12.0656 12.8113 10.6695ZM23.2031 13.4856C22.1798 13.5384 21.0058 13.6998 19.9111 14.0805C17.7534 14.8421 17.6423 16.3572 17.7692 16.738C17.8962 17.1187 19.6651 18.6418 22.3305 18.0072C24.4882 17.4995 26.0113 15.2466 26.1382 13.7236C26.2175 13.6442 24.9087 13.3976 23.2031 13.4856ZM7.85336 15.2308C6.33029 16.1192 5.21971 17.6264 4.83894 19.9111C4.45817 22.9572 6.47308 24.3851 6.98077 24.512C7.48846 24.6389 9.14639 24.512 9.40024 21.3389C9.52716 18.9274 8.6149 16.2462 7.85336 15.2308ZM16.8173 18.5625C16.5387 18.5796 16.2541 18.5942 15.9844 18.6418C13.8267 19.0226 12.6844 20.5536 12.8113 21.0613C12.9382 21.569 14.3264 23.5918 17.3726 23.0841C19.6572 22.7034 21.2041 21.4341 22.0925 19.9111C20.8709 19.0226 18.7678 18.4428 16.8173 18.5625ZM11.4231 23.2428C8.25 23.4966 8.12308 25.1149 8.25 25.6226C8.37692 26.1303 9.76514 28.3118 12.8113 27.8041C15.0959 27.4233 16.6428 26.2731 17.5312 24.75C16.3889 23.9885 13.7077 23.1159 11.4231 23.2428Z" fill="black"/>
</svg>
