<svg width="33" height="33" viewBox="0 0 33 33" fill="none" xmlns="http://www.w3.org/2000/svg">
<path d="M8.88461 0C4.00385 0 0 4.00385 0 8.88461V24.1154C0 28.9962 4.00385 33 8.88461 33H24.1154C28.9962 33 33 28.9962 33 24.1154V8.88461C33 4.00385 28.9962 0 24.1154 0H8.88461ZM8.88461 2.53846H24.1154C27.6115 2.53846 30.4615 5.38846 30.4615 8.88461V24.1154C30.4615 27.6115 27.6115 30.4615 24.1154 30.4615H8.88461C5.38846 30.4615 2.53846 27.6115 2.53846 24.1154V8.88461C2.53846 8.66611 2.5564 8.46292 2.57812 8.25C2.90404 5.05615 5.60697 2.53846 8.88461 2.53846ZM7.3774 11.1851V21.5769H9.00361V19.0385L9.40024 18.2849L10.6695 21.5769H12.4543L10.3918 17.2536L12.2957 14.1995H10.5505L9.40024 16.619C9.27332 16.8728 9.13053 17.1505 9.00361 17.5312V11.1851H7.3774ZM23.9964 11.1851V21.6959H25.6226V11.1851H23.9964ZM15.8654 14.0805C13.9615 14.0805 12.6923 15.6036 12.6923 17.8882C12.6923 20.4267 13.8505 21.6959 15.6274 21.6959C16.1351 21.6959 16.6428 21.5849 16.8966 21.4579L16.619 20.3077C16.3651 20.4346 16.1192 20.4267 15.8654 20.4267C14.85 20.4267 14.1995 19.5303 14.1995 18.0072C14.1995 16.6111 14.85 15.4687 15.8654 15.4687C16.2462 15.4687 16.4921 15.6274 16.619 15.6274L16.8966 14.3582C16.7697 14.2312 16.2462 14.0805 15.8654 14.0805ZM20.0697 14.0805C19.1812 14.0805 18.388 14.3423 18.0072 14.5962L18.2849 15.7464C18.6656 15.4925 19.1654 15.3498 19.6731 15.3498C20.5615 15.3498 20.8233 15.8575 20.8233 16.619V16.8966C19.1733 16.8966 17.5312 17.6502 17.5312 19.5541C17.5312 20.8233 18.4197 21.6959 19.4351 21.6959C20.0697 21.6959 20.5615 21.331 20.9423 20.8233L21.0613 21.5769H22.6082C22.4812 21.0692 22.4495 20.5457 22.4495 19.9111V17.0156C22.4495 15.3656 21.9736 14.0805 20.0697 14.0805ZM20.7043 17.8882V19.6731C20.5774 20.3077 20.1728 20.5457 19.7921 20.5457C19.4113 20.5457 19.0385 20.3236 19.0385 19.4351C19.0385 18.0389 20.3236 17.8882 20.7043 17.8882Z" fill="black"/>
</svg>
