<svg width="33" height="33" viewBox="0 0 33 33" fill="none" xmlns="http://www.w3.org/2000/svg">
<path d="M8.88461 0C4.00385 0 0 4.00385 0 8.88461V24.1154C0 28.9962 4.00385 33 8.88461 33H24.1154C28.9962 33 33 28.9962 33 24.1154V8.88461C33 4.00385 28.9962 0 24.1154 0H8.88461ZM8.88461 2.53846H18.2452L2.53846 18.2452V8.88461C2.53846 8.66611 2.5564 8.46292 2.57812 8.25C2.90404 5.05615 5.60697 2.53846 8.88461 2.53846ZM23.5601 2.53846H24.1154C27.6115 2.53846 30.4615 5.38846 30.4615 8.88461V9.99519L9.99519 30.4615H8.88461C5.38846 30.4615 2.53846 27.6115 2.53846 24.1154V22.8858L3.92668 24.2344C4.03846 24.3731 4.17818 24.4867 4.33676 24.5679C4.49534 24.649 4.66923 24.6959 4.84712 24.7054C5.025 24.715 5.2029 24.687 5.36925 24.6232C5.5356 24.5595 5.68667 24.4614 5.81263 24.3355C5.9386 24.2095 6.03664 24.0584 6.10038 23.8921C6.16412 23.7257 6.19214 23.5478 6.1826 23.37C6.17307 23.1921 6.12619 23.0182 6.04504 22.8596C5.96388 22.701 5.85025 22.5613 5.71154 22.4495L3.80769 20.5457L5.19591 19.1971L9.40024 23.3618C9.51202 23.5005 9.65174 23.6141 9.81032 23.6953C9.9689 23.7764 10.1428 23.8233 10.3207 23.8328C10.4986 23.8424 10.6765 23.8144 10.8428 23.7506C11.0092 23.6869 11.1602 23.5888 11.2862 23.4629C11.4122 23.3369 11.5102 23.1858 11.5739 23.0195C11.6377 22.8531 11.6657 22.6752 11.6562 22.4974C11.6466 22.3195 11.5998 22.1456 11.5186 21.987C11.4374 21.8284 11.3238 21.6887 11.1851 21.5769L6.98077 17.3726L8.36899 16.024L10.2332 18.0072C10.3478 18.1297 10.4853 18.2284 10.6381 18.2976C10.7908 18.3669 10.9556 18.4054 11.1233 18.411C11.2909 18.4165 11.4579 18.389 11.6149 18.33C11.7719 18.2709 11.9157 18.1816 12.0381 18.067C12.1605 17.9523 12.2592 17.8147 12.3284 17.662C12.3976 17.5093 12.4361 17.3444 12.4416 17.1768C12.4471 17.0092 12.4195 16.8421 12.3605 16.6851C12.3014 16.5282 12.212 16.3844 12.0974 16.262L10.1538 14.2392L11.5024 12.8906L15.7464 17.1346C15.8582 17.2733 15.9979 17.387 16.1565 17.4681C16.3151 17.5493 16.4889 17.5961 16.6668 17.6057C16.8447 17.6152 17.0226 17.5872 17.189 17.5235C17.3553 17.4597 17.5064 17.3617 17.6323 17.2357C17.7583 17.1097 17.8564 16.9587 17.9201 16.7923C17.9838 16.626 18.0118 16.4481 18.0023 16.2702C17.9928 16.0923 17.9459 15.9184 17.8647 15.7598C17.7836 15.6013 17.67 15.4615 17.5312 15.3498L13.2873 11.1058L14.6358 9.75721L16.6587 11.7007C16.7736 11.8365 16.9159 11.9465 17.0761 12.0237C17.2364 12.101 17.4111 12.1436 17.5889 12.149C17.7667 12.1544 17.9437 12.1223 18.1083 12.0549C18.2729 11.9875 18.4215 11.8862 18.5445 11.7576C18.6674 11.6291 18.762 11.4761 18.8221 11.3087C18.8821 11.1412 18.9063 10.963 18.893 10.7856C18.8798 10.6082 18.8294 10.4356 18.7451 10.2789C18.6608 10.1222 18.5446 9.98505 18.4038 9.8762L16.4207 7.97236L17.7692 6.6238L21.9339 10.7885C22.0511 10.9083 22.1907 11.0039 22.3449 11.0698C22.499 11.1357 22.6646 11.1705 22.8322 11.1724C22.9998 11.1743 23.1662 11.1431 23.3217 11.0807C23.4773 11.0182 23.619 10.9258 23.7388 10.8086C23.8587 10.6913 23.9542 10.5517 24.02 10.3975C24.0859 10.2434 24.1207 10.0777 24.1225 9.91014C24.1243 9.74252 24.0931 9.57619 24.0306 9.42065C23.9682 9.26511 23.8757 9.12339 23.7584 9.00361L19.5541 4.83894L20.9423 3.45072L22.8065 5.43389C22.9211 5.55635 23.0586 5.65504 23.2114 5.72431C23.3641 5.79359 23.529 5.8321 23.6966 5.83765C23.8642 5.8432 24.0312 5.81568 24.1882 5.75665C24.3452 5.69762 24.489 5.60825 24.6114 5.49364C24.7338 5.37903 24.8325 5.24143 24.9017 5.08868C24.971 4.93594 25.0094 4.77106 25.0149 4.60345C25.0204 4.43584 24.9929 4.26878 24.9338 4.11183C24.8747 3.95488 24.7853 3.8111 24.6707 3.6887L23.5601 2.53846ZM30.4615 13.6046V24.1154C30.4615 27.6115 27.6115 30.4615 24.1154 30.4615H13.6046L30.4615 13.6046Z" fill="black"/>
</svg>
