<svg width="150" height="35" viewBox="0 0 150 35" fill="none" xmlns="http://www.w3.org/2000/svg">
<path d="M16.3145 3.69141H16.6309C18.6348 3.69141 20.4453 4.13672 22.0625 5.02734C23.6914 5.90625 24.957 7.16016 25.8594 8.78906C26.7617 10.418 27.2129 12.2695 27.2129 14.3438C27.2129 17.4141 26.2285 19.9219 24.2598 21.8672C22.3027 23.8125 19.6543 24.7852 16.3145 24.7852V28.0547H11.2344V24.7852H10.9004C8.87305 24.7852 7.04492 24.3516 5.41602 23.4844C3.78711 22.6055 2.52148 21.375 1.61914 19.793C0.728516 18.2109 0.283203 16.4062 0.283203 14.3789C0.283203 12.3281 0.728516 10.4941 1.61914 8.87695C2.50977 7.25977 3.75781 6 5.36328 5.09766C6.96875 4.18359 8.76172 3.71484 10.7422 3.69141H11.2344V0.351562H16.3145V3.69141ZM10.9004 8.06836C9.1543 8.06836 7.77734 8.61914 6.76953 9.7207C5.77344 10.8223 5.27539 12.375 5.27539 14.3789C5.27539 16.2539 5.77344 17.7305 6.76953 18.8086C7.76562 19.875 9.16602 20.4082 10.9707 20.4082H11.2344V8.06836H10.9004ZM16.3145 8.06836V20.4082H16.666C18.3887 20.4082 19.7422 19.8691 20.7266 18.791C21.7227 17.7012 22.2207 16.2188 22.2207 14.3438C22.2207 12.3867 21.7344 10.8516 20.7617 9.73828C19.7891 8.625 18.3945 8.06836 16.5781 8.06836H16.3145ZM37.4434 19.8105L40.959 7.98047H46.4082L38.7617 29.9531L38.3398 30.9551C37.2031 33.4395 35.3281 34.6816 32.7148 34.6816C31.9766 34.6816 31.2266 34.5703 30.4648 34.3477V30.498L31.2383 30.5156C32.1992 30.5156 32.9141 30.3691 33.3828 30.0762C33.8633 29.7832 34.2383 29.2969 34.5078 28.6172L35.1055 27.0527L28.4434 7.98047H33.9102L37.4434 19.8105ZM47.6914 22.9043C48.8398 21.6855 49.6191 20.4785 50.0293 19.2832C50.4395 18.0879 50.668 16.3945 50.7148 14.2031L50.8555 7.98047H64.8477V22.9043H67.5898V32.7129H62.5098V27H51.2422V32.7129H46.0566V22.9043H47.6914ZM53.6855 22.9043H59.7852V12.1816H55.8301L55.7949 14.4668C55.6895 17.959 54.9863 20.7715 53.6855 22.9043Z" fill="black"/>
<path d="M86.7148 7.98047V27H81.6348V12.0938H77.1523L76.8359 17.9648C76.6367 21.0938 76.0215 23.373 74.9902 24.8027C73.959 26.2324 72.4238 26.9648 70.3848 27H68.6621L68.6094 22.8691L69.2422 22.8164C70.1562 22.7461 70.8242 22.207 71.2461 21.1992C71.668 20.1914 71.9316 18.4746 72.0371 16.0488L72.3887 7.98047H86.7148ZM97.5605 11.7422C96.6465 11.7422 95.9199 12 95.3809 12.5156C94.8418 13.0195 94.5723 13.6992 94.5723 14.5547H89.791C89.791 13.2656 90.1309 12.0879 90.8105 11.0215C91.502 9.95508 92.4395 9.12305 93.623 8.52539C94.8184 7.92773 96.1309 7.62891 97.5605 7.62891C100.244 7.62891 102.383 8.50781 103.977 10.2656C105.57 12.0117 106.367 14.3965 106.367 17.4199V17.7539C106.367 19.6289 106.016 21.2988 105.312 22.7637C104.609 24.2168 103.59 25.3477 102.254 26.1562C100.93 26.9531 99.377 27.3516 97.5957 27.3516C95.252 27.3516 93.3652 26.6777 91.9355 25.3301C90.5059 23.9824 89.791 22.1836 89.791 19.9336H94.5723C94.5723 20.9062 94.8418 21.709 95.3809 22.3418C95.9316 22.9629 96.6699 23.2734 97.5957 23.2734C98.6152 23.2734 99.4355 22.916 100.057 22.2012C100.678 21.4746 101.059 20.4023 101.199 18.9844H96.1016V15.873H101.199C100.859 13.1191 99.6465 11.7422 97.5605 11.7422ZM125.861 27H120.764V19.6875H114.453V27H109.373V7.98047H114.453V15.6094H120.764V7.98047H125.861V27ZM130.062 22.9043C131.211 21.6855 131.99 20.4785 132.4 19.2832C132.811 18.0879 133.039 16.3945 133.086 14.2031L133.227 7.98047H147.219V22.9043H149.961V32.7129H144.881V27H133.613V32.7129H128.428V22.9043H130.062ZM136.057 22.9043H142.156V12.1816H138.201L138.166 14.4668C138.061 17.959 137.357 20.7715 136.057 22.9043Z" fill="#189A4C"/>
</svg>
