<svg width="33" height="33" viewBox="0 0 33 33" fill="none" xmlns="http://www.w3.org/2000/svg">
<path d="M8.88461 0C4.00385 0 0 4.00385 0 8.88461V24.1154C0 28.9962 4.00385 33 8.88461 33H24.1154C28.9962 33 33 28.9962 33 24.1154V8.88461C33 4.00385 28.9962 0 24.1154 0H8.88461ZM8.88461 2.53846H24.1154C27.6115 2.53846 30.4615 5.38846 30.4615 8.88461V24.1154C30.4615 27.6115 27.6115 30.4615 24.1154 30.4615H8.88461C5.38846 30.4615 2.53846 27.6115 2.53846 24.1154V8.88461C2.53846 8.66611 2.5564 8.46292 2.57812 8.25C2.90404 5.05615 5.60697 2.53846 8.88461 2.53846ZM21.1803 3.56971C20.2918 3.53798 19.5462 3.81562 19.0385 4.32332L18.9591 4.40264C18.8879 4.44877 18.8215 4.50192 18.7608 4.5613L17.4519 5.90986L16.1034 7.21875C16.0716 7.25048 16.0511 7.29857 16.024 7.33774L15.8654 7.49639C15.1605 8.20125 14.9272 9.15683 14.9928 10.0745C15.0583 10.9922 15.3813 11.9134 15.905 12.8113C15.918 12.8248 15.9312 12.838 15.9447 12.851C15.9447 12.851 16.089 13.1051 16.1034 13.1286C15.9441 13.0266 15.6569 12.8408 15.6274 12.8113C13.7236 11.5421 11.7959 11.4072 10.9075 12.2957L8.88461 14.3582C8.82115 14.4216 8.78546 14.4672 8.76562 14.5565L8.36899 14.9531C7.66413 15.658 7.43084 16.6532 7.49639 17.5709C7.56194 18.4886 7.8849 19.4098 8.40865 20.3077C8.42158 20.3212 8.4348 20.3344 8.44832 20.3474C8.44832 20.3474 8.55928 20.4931 8.56731 20.506L4.95793 24.1154C4.45024 24.6231 4.43437 25.6385 5.19591 26.0192C6.71899 26.9077 8.87668 28.3197 9.00361 28.3197C10.92 29.5175 12.8191 29.6598 13.8822 28.7163C13.9456 28.66 14.0233 28.622 14.0805 28.5577C14.1364 28.5222 14.1895 28.4824 14.2392 28.4387L16.8966 25.7812C16.9284 25.7495 16.9489 25.7014 16.976 25.6623L17.1346 25.5036C17.8395 24.7987 18.0728 23.8432 18.0072 22.9255C17.9417 22.0078 17.6187 21.0866 17.095 20.1887C17.0952 20.1755 17.0952 20.1623 17.095 20.149C17.095 20.149 16.9497 19.8932 16.9363 19.8714C17.1058 19.9873 17.3726 20.1887 17.3726 20.1887C19.2764 21.4579 21.2041 21.5928 22.0925 20.7043L24.75 18.0072C24.823 17.9342 24.8117 17.9471 24.75 17.9279C25.3655 17.233 25.5655 16.2951 25.5036 15.4291C25.4381 14.5114 25.1151 13.5902 24.5913 12.6923C24.5784 12.6788 24.5652 12.6656 24.5517 12.6526C24.5517 12.6526 24.4751 12.5382 24.4724 12.5337L28.0421 8.88461C28.6767 8.25 28.5656 7.36947 27.8041 6.86178C26.281 5.97332 24.1154 4.5613 24.1154 4.5613C23.1 3.92668 22.0687 3.60144 21.1803 3.56971ZM18.9988 7.93269C19.1467 8.35653 19.2202 8.73803 19.4748 9.16226C20.2353 10.4298 22.3294 13.8944 22.3702 13.9615C22.3706 13.9622 22.4099 14.0012 22.4099 14.0012C22.7534 14.6065 22.9364 15.1849 22.9651 15.5877C22.9948 16.0027 22.9028 16.1657 22.8462 16.2224L21.5769 17.4916C21.3629 17.0181 21.3545 16.8969 21.0216 16.381C21.0107 16.3614 20.9936 16.3224 20.982 16.3017C20.2503 14.9977 18.1127 11.5841 18.0865 11.5421C18.0785 11.5284 18.0943 11.516 18.0865 11.5024C17.7376 10.892 17.5602 10.3218 17.5312 9.91586C17.5016 9.50086 17.5936 9.33793 17.6502 9.28125L18.9988 7.93269ZM11.4231 15.5084C11.6462 15.9946 11.6406 16.0957 11.9784 16.6587C12.7463 17.9386 14.9135 21.4579 14.9135 21.4579C15.2782 22.0831 15.4391 22.6691 15.4687 23.0841C15.4984 23.4991 15.4064 23.6621 15.3498 23.7188L13.9219 25.1466C13.7654 24.5926 13.8748 24.4353 13.5649 23.8774C12.8711 22.6285 10.672 19.1062 10.6298 19.0385C10.6191 19.0201 10.6005 19.0171 10.5901 18.9988C10.2466 18.3935 10.0636 17.8151 10.0349 17.4123C10.0052 16.9973 10.0972 16.8343 10.1538 16.7776L11.4231 15.5084Z" fill="black"/>
</svg>
